<svg width="40" height="41" viewBox="0 0 40 41" fill="none" xmlns="http://www.w3.org/2000/svg">
<path d="M23.0501 32.1666C22.8011 32.1675 22.5551 32.1125 22.3301 32.0058C22.1051 31.8991 21.9069 31.7433 21.7501 31.5499L13.7001 21.5499C13.4549 21.2517 13.3209 20.8777 13.3209 20.4916C13.3209 20.1056 13.4549 19.7315 13.7001 19.4333L22.0334 9.43328C22.3163 9.09292 22.7228 8.87888 23.1635 8.83824C23.6042 8.79761 24.043 8.93371 24.3834 9.21661C24.7238 9.49951 24.9378 9.90603 24.9784 10.3467C25.0191 10.7875 24.883 11.2263 24.6001 11.5666L17.1501 20.4999L24.3501 29.4333C24.5539 29.6779 24.6833 29.9758 24.7231 30.2917C24.7629 30.6077 24.7114 30.9284 24.5746 31.2159C24.4379 31.5035 24.2216 31.7458 23.9514 31.9143C23.6813 32.0828 23.3685 32.1703 23.0501 32.1666Z" fill="white"/>
</svg>
