<svg width="13" height="24" viewBox="0 0 13 24" fill="none" xmlns="http://www.w3.org/2000/svg">
<path d="M2.66655 23.6665C2.27713 23.6672 1.89973 23.5316 1.59988 23.2832C1.43112 23.1432 1.29161 22.9714 1.18936 22.7775C1.08711 22.5836 1.02411 22.3714 1.00399 22.1531C0.983861 21.9348 1.007 21.7147 1.07207 21.5054C1.13715 21.296 1.24288 21.1016 1.38321 20.9332L8.84988 11.9998L1.64988 3.04982C1.51144 2.87934 1.40805 2.68318 1.34567 2.47261C1.28328 2.26205 1.26312 2.04123 1.28636 1.82285C1.30959 1.60447 1.37575 1.39283 1.48104 1.2001C1.58633 1.00738 1.72867 0.837357 1.89988 0.699819C2.07232 0.548092 2.27427 0.433646 2.49304 0.363664C2.71181 0.293683 2.94268 0.269676 3.17117 0.293151C3.39966 0.316626 3.62083 0.387076 3.8208 0.500079C4.02077 0.613082 4.19523 0.766198 4.33321 0.94982L12.3832 10.9498C12.6284 11.248 12.7624 11.6221 12.7624 12.0082C12.7624 12.3942 12.6284 12.7683 12.3832 13.0665L4.04988 23.0665C3.88269 23.2682 3.6703 23.4276 3.42995 23.5319C3.1896 23.6361 2.92806 23.6822 2.66655 23.6665Z" fill="#A0A0A0"/>
</svg>
