<svg width="40" height="41" viewBox="0 0 40 41" fill="none" xmlns="http://www.w3.org/2000/svg">
<path d="M16.6665 32.1664C16.2771 32.1671 15.8997 32.0315 15.5999 31.783C15.4311 31.6431 15.2916 31.4713 15.1894 31.2774C15.0871 31.0835 15.0241 30.8713 15.004 30.653C14.9839 30.4347 15.007 30.2146 15.0721 30.0052C15.1371 29.7959 15.2429 29.6015 15.3832 29.433L22.8499 20.4997L15.6499 11.5497C15.5114 11.3792 15.4081 11.1831 15.3457 10.9725C15.2833 10.7619 15.2631 10.5411 15.2864 10.3227C15.3096 10.1044 15.3757 9.89272 15.481 9.7C15.5863 9.50727 15.7287 9.33725 15.8999 9.19971C16.0723 9.04799 16.2743 8.93354 16.493 8.86356C16.7118 8.79358 16.9427 8.76957 17.1712 8.79304C17.3997 8.81652 17.6208 8.88697 17.8208 8.99997C18.0208 9.11297 18.1952 9.26609 18.3332 9.44971L26.3832 19.4497C26.6284 19.7479 26.7624 20.122 26.7624 20.508C26.7624 20.8941 26.6284 21.2682 26.3832 21.5664L18.0499 31.5664C17.8827 31.7681 17.6703 31.9275 17.4299 32.0318C17.1896 32.136 16.9281 32.1821 16.6665 32.1664Z" fill="white"/>
</svg>
